<?xml version="1.0" encoding="UTF-8" standalone="no"?>
<!DOCTYPE svg PUBLIC "-//W3C//DTD SVG 1.1//EN"
 "http://www.w3.org/Graphics/SVG/1.1/DTD/svg11.dtd">
<!-- Generated by graphviz version 2.40.1 (20161225.0304)
 -->
<!-- Title: UmlClassDiagram Pages: 1 -->
<svg width="515pt" height="1042pt"
 viewBox="0.00 0.00 514.65 1041.80" xmlns="http://www.w3.org/2000/svg" xmlns:xlink="http://www.w3.org/1999/xlink">
<g id="graph0" class="graph" transform="scale(1 1) rotate(0) translate(4 1037.8)">
<title>UmlClassDiagram</title>
<polygon fill="#ffffff" stroke="transparent" points="-4,4 -4,-1037.8 510.6524,-1037.8 510.6524,4 -4,4"/>
<!-- 0 -->
<g id="node1" class="node">
<title>0</title>
<polygon fill="#f2f2f2" stroke="#000000" points="174.377,-908.5 174.377,-1033.3 332.2754,-1033.3 332.2754,-908.5 174.377,-908.5"/>
<text text-anchor="middle" x="253.3262" y="-1016.7" font-family="Times,serif" font-size="14.00" fill="#000000">&lt;&lt;Abstract&gt;&gt;</text>
<text text-anchor="middle" x="253.3262" y="-999.9" font-family="Times,serif" font-size="14.00" fill="#000000">Context</text>
<polyline fill="none" stroke="#000000" points="174.377,-991.7 332.2754,-991.7 "/>
<text text-anchor="middle" x="253.3262" y="-975.1" font-family="Times,serif" font-size="14.00" fill="#000000"> </text>
<polyline fill="none" stroke="#000000" points="174.377,-966.9 332.2754,-966.9 "/>
<text text-anchor="start" x="182.377" y="-950.3" font-family="Times,serif" font-size="14.00" fill="#000000">Internal:</text>
<text text-anchor="start" x="182.377" y="-933.5" font-family="Times,serif" font-size="14.00" fill="#000000"> &#160;&#160;&#160;_msgSender(): address</text>
<text text-anchor="start" x="182.377" y="-916.7" font-family="Times,serif" font-size="14.00" fill="#000000"> &#160;&#160;&#160;_msgData(): bytes</text>
</g>
<!-- 1 -->
<g id="node2" class="node">
<title>1</title>
<polygon fill="#f2f2f2" stroke="#000000" points="10.8892,-612.3 10.8892,-871.5 495.7632,-871.5 495.7632,-612.3 10.8892,-612.3"/>
<text text-anchor="middle" x="253.3262" y="-854.9" font-family="Times,serif" font-size="14.00" fill="#000000">&lt;&lt;Abstract&gt;&gt;</text>
<text text-anchor="middle" x="253.3262" y="-838.1" font-family="Times,serif" font-size="14.00" fill="#000000">Ownable</text>
<polyline fill="none" stroke="#000000" points="10.8892,-829.9 495.7632,-829.9 "/>
<text text-anchor="start" x="18.8892" y="-813.3" font-family="Times,serif" font-size="14.00" fill="#000000">Private:</text>
<text text-anchor="start" x="18.8892" y="-796.5" font-family="Times,serif" font-size="14.00" fill="#000000"> &#160;&#160;_owner: address</text>
<polyline fill="none" stroke="#000000" points="10.8892,-788.3 495.7632,-788.3 "/>
<text text-anchor="start" x="18.8892" y="-771.7" font-family="Times,serif" font-size="14.00" fill="#000000">Internal:</text>
<text text-anchor="start" x="18.8892" y="-754.9" font-family="Times,serif" font-size="14.00" fill="#000000"> &#160;&#160;&#160;_checkOwner()</text>
<text text-anchor="start" x="18.8892" y="-738.1" font-family="Times,serif" font-size="14.00" fill="#000000"> &#160;&#160;&#160;_transferOwnership(newOwner: address)</text>
<text text-anchor="start" x="18.8892" y="-721.3" font-family="Times,serif" font-size="14.00" fill="#000000">Public:</text>
<text text-anchor="start" x="18.8892" y="-704.5" font-family="Times,serif" font-size="14.00" fill="#000000"> &#160;&#160;&#160;&lt;&lt;event&gt;&gt; OwnershipTransferred(previousOwner: address, newOwner: address)</text>
<text text-anchor="start" x="18.8892" y="-687.7" font-family="Times,serif" font-size="14.00" fill="#000000"> &#160;&#160;&#160;&lt;&lt;modifier&gt;&gt; onlyOwner()</text>
<text text-anchor="start" x="18.8892" y="-670.9" font-family="Times,serif" font-size="14.00" fill="#000000"> &#160;&#160;&#160;constructor()</text>
<text text-anchor="start" x="18.8892" y="-654.1" font-family="Times,serif" font-size="14.00" fill="#000000"> &#160;&#160;&#160;owner(): address</text>
<text text-anchor="start" x="18.8892" y="-637.3" font-family="Times,serif" font-size="14.00" fill="#000000"> &#160;&#160;&#160;renounceOwnership()</text>
<text text-anchor="start" x="18.8892" y="-620.5" font-family="Times,serif" font-size="14.00" fill="#000000"> &#160;&#160;&#160;transferOwnership(newOwner: address)</text>
</g>
<!-- 1&#45;&gt;0 -->
<g id="edge2" class="edge">
<title>1&#45;&gt;0</title>
<path fill="none" stroke="#000000" d="M253.3262,-871.7891C253.3262,-873.8594 253.3262,-875.9228 253.3262,-877.9766"/>
<polygon fill="none" stroke="#000000" points="242.8263,-878.2549 253.3262,-908.255 263.8263,-878.255 242.8263,-878.2549"/>
</g>
<!-- 2 -->
<g id="node3" class="node">
<title>2</title>
<polygon fill="#f2f2f2" stroke="#000000" points="0,-366.5 0,-575.3 506.6524,-575.3 506.6524,-366.5 0,-366.5"/>
<text text-anchor="middle" x="253.3262" y="-558.7" font-family="Times,serif" font-size="14.00" fill="#000000">&lt;&lt;Abstract&gt;&gt;</text>
<text text-anchor="middle" x="253.3262" y="-541.9" font-family="Times,serif" font-size="14.00" fill="#000000">Ownable2Step</text>
<polyline fill="none" stroke="#000000" points="0,-533.7 506.6524,-533.7 "/>
<text text-anchor="start" x="8" y="-517.1" font-family="Times,serif" font-size="14.00" fill="#000000">Private:</text>
<text text-anchor="start" x="8" y="-500.3" font-family="Times,serif" font-size="14.00" fill="#000000"> &#160;&#160;_pendingOwner: address</text>
<polyline fill="none" stroke="#000000" points="0,-492.1 506.6524,-492.1 "/>
<text text-anchor="start" x="8" y="-475.5" font-family="Times,serif" font-size="14.00" fill="#000000">Internal:</text>
<text text-anchor="start" x="8" y="-458.7" font-family="Times,serif" font-size="14.00" fill="#000000"> &#160;&#160;&#160;_transferOwnership(newOwner: address)</text>
<text text-anchor="start" x="8" y="-441.9" font-family="Times,serif" font-size="14.00" fill="#000000">Public:</text>
<text text-anchor="start" x="8" y="-425.1" font-family="Times,serif" font-size="14.00" fill="#000000"> &#160;&#160;&#160;&lt;&lt;event&gt;&gt; OwnershipTransferStarted(previousOwner: address, newOwner: address)</text>
<text text-anchor="start" x="8" y="-408.3" font-family="Times,serif" font-size="14.00" fill="#000000"> &#160;&#160;&#160;pendingOwner(): address</text>
<text text-anchor="start" x="8" y="-391.5" font-family="Times,serif" font-size="14.00" fill="#000000"> &#160;&#160;&#160;transferOwnership(newOwner: address)</text>
<text text-anchor="start" x="8" y="-374.7" font-family="Times,serif" font-size="14.00" fill="#000000"> &#160;&#160;&#160;acceptOwnership()</text>
</g>
<!-- 2&#45;&gt;1 -->
<g id="edge3" class="edge">
<title>2&#45;&gt;1</title>
<path fill="none" stroke="#000000" d="M253.3262,-575.6757C253.3262,-577.7237 253.3262,-579.7815 253.3262,-581.8473"/>
<polygon fill="none" stroke="#000000" points="242.8263,-582.0306 253.3262,-612.0306 263.8263,-582.0306 242.8263,-582.0306"/>
</g>
<!-- 3 -->
<g id="node4" class="node">
<title>3</title>
<polygon fill="#f2f2f2" stroke="#000000" points="55.2328,-120.7 55.2328,-329.5 451.4196,-329.5 451.4196,-120.7 55.2328,-120.7"/>
<text text-anchor="middle" x="253.3262" y="-312.9" font-family="Times,serif" font-size="14.00" fill="#000000">RewardsReceiver</text>
<polyline fill="none" stroke="#000000" points="55.2328,-304.7 451.4196,-304.7 "/>
<text text-anchor="start" x="63.2328" y="-288.1" font-family="Times,serif" font-size="14.00" fill="#000000">Public:</text>
<text text-anchor="start" x="63.2328" y="-271.3" font-family="Times,serif" font-size="14.00" fill="#000000"> &#160;&#160;state: State</text>
<text text-anchor="start" x="63.2328" y="-254.5" font-family="Times,serif" font-size="14.00" fill="#000000"> &#160;&#160;DEPOSITS: address</text>
<text text-anchor="start" x="63.2328" y="-237.7" font-family="Times,serif" font-size="14.00" fill="#000000"> &#160;&#160;WITHDRAWALS: address</text>
<polyline fill="none" stroke="#000000" points="55.2328,-229.5 451.4196,-229.5 "/>
<text text-anchor="start" x="63.2328" y="-212.9" font-family="Times,serif" font-size="14.00" fill="#000000">External:</text>
<text text-anchor="start" x="63.2328" y="-196.1" font-family="Times,serif" font-size="14.00" fill="#000000"> &#160;&#160;&#160;&lt;&lt;payable&gt;&gt; null()</text>
<text text-anchor="start" x="63.2328" y="-179.3" font-family="Times,serif" font-size="14.00" fill="#000000"> &#160;&#160;&#160;work()</text>
<text text-anchor="start" x="63.2328" y="-162.5" font-family="Times,serif" font-size="14.00" fill="#000000"> &#160;&#160;&#160;flipState()</text>
<text text-anchor="start" x="63.2328" y="-145.7" font-family="Times,serif" font-size="14.00" fill="#000000">Public:</text>
<text text-anchor="start" x="63.2328" y="-128.9" font-family="Times,serif" font-size="14.00" fill="#000000"> &#160;&#160;&#160;constructor(_convertorAddr: address, _withdrawalAddr: address)</text>
</g>
<!-- 3&#45;&gt;2 -->
<g id="edge4" class="edge">
<title>3&#45;&gt;2</title>
<path fill="none" stroke="#000000" d="M253.3262,-329.6977C253.3262,-331.8813 253.3262,-334.0727 253.3262,-336.2692"/>
<polygon fill="none" stroke="#000000" points="242.8263,-336.3962 253.3262,-366.3962 263.8263,-336.3963 242.8263,-336.3962"/>
</g>
<!-- 3enum0 -->
<g id="node5" class="node">
<title>3enum0</title>
<polygon fill="#f2f2f2" stroke="#000000" points="202.3672,-.5 202.3672,-83.7 304.2852,-83.7 304.2852,-.5 202.3672,-.5"/>
<text text-anchor="middle" x="253.3262" y="-67.1" font-family="Times,serif" font-size="14.00" fill="#000000">&lt;&lt;enum&gt;&gt;</text>
<text text-anchor="middle" x="253.3262" y="-50.3" font-family="Times,serif" font-size="14.00" fill="#000000">State</text>
<polyline fill="none" stroke="#000000" points="202.3672,-42.1 304.2852,-42.1 "/>
<text text-anchor="start" x="210.3672" y="-25.5" font-family="Times,serif" font-size="14.00" fill="#000000">Deposits: 0</text>
<text text-anchor="start" x="210.3672" y="-8.7" font-family="Times,serif" font-size="14.00" fill="#000000">Withdrawals: 1</text>
</g>
<!-- 3enum0&#45;&gt;3 -->
<g id="edge1" class="edge">
<title>3enum0&#45;&gt;3</title>
<path fill="none" stroke="#000000" d="M253.3262,-84.0839C253.3262,-91.6148 253.3262,-99.7861 253.3262,-108.2729"/>
<polygon fill="#000000" stroke="#000000" points="253.3263,-108.4478 257.3262,-114.4478 253.3262,-120.4478 249.3262,-114.4478 253.3263,-108.4478"/>
</g>
</g>
</svg>
