<?xml version="1.0" encoding="UTF-8" standalone="no"?>
<!DOCTYPE svg PUBLIC "-//W3C//DTD SVG 1.1//EN"
 "http://www.w3.org/Graphics/SVG/1.1/DTD/svg11.dtd">
<!-- Generated by graphviz version 2.40.1 (20161225.0304)
 -->
<!-- Title: UmlClassDiagram Pages: 1 -->
<svg width="2029pt" height="1386pt"
 viewBox="0.00 0.00 2028.71 1385.80" xmlns="http://www.w3.org/2000/svg" xmlns:xlink="http://www.w3.org/1999/xlink">
<g id="graph0" class="graph" transform="scale(1 1) rotate(0) translate(4 1381.8)">
<title>UmlClassDiagram</title>
<polygon fill="#ffffff" stroke="transparent" points="-4,4 -4,-1381.8 2024.7124,-1381.8 2024.7124,4 -4,4"/>
<!-- 0 -->
<g id="node1" class="node">
<title>0</title>
<polygon fill="#f2f2f2" stroke="#000000" points="516.9738,-576.1 516.9738,-717.7 1148.8436,-717.7 1148.8436,-576.1 516.9738,-576.1"/>
<text text-anchor="middle" x="832.9087" y="-701.1" font-family="Times,serif" font-size="14.00" fill="#000000">&lt;&lt;Interface&gt;&gt;</text>
<text text-anchor="middle" x="832.9087" y="-684.3" font-family="Times,serif" font-size="14.00" fill="#000000">IERC20Permit</text>
<polyline fill="none" stroke="#000000" points="516.9738,-676.1 1148.8436,-676.1 "/>
<text text-anchor="middle" x="832.9087" y="-659.5" font-family="Times,serif" font-size="14.00" fill="#000000"> </text>
<polyline fill="none" stroke="#000000" points="516.9738,-651.3 1148.8436,-651.3 "/>
<text text-anchor="start" x="524.9738" y="-634.7" font-family="Times,serif" font-size="14.00" fill="#000000">External:</text>
<text text-anchor="start" x="524.9738" y="-617.9" font-family="Times,serif" font-size="14.00" fill="#000000"> &#160;&#160;&#160;&#160;permit(owner: address, spender: address, value: uint256, deadline: uint256, v: uint8, r: bytes32, s: bytes32)</text>
<text text-anchor="start" x="524.9738" y="-601.1" font-family="Times,serif" font-size="14.00" fill="#000000"> &#160;&#160;&#160;&#160;nonces(owner: address): uint256</text>
<text text-anchor="start" x="524.9738" y="-584.3" font-family="Times,serif" font-size="14.00" fill="#000000"> &#160;&#160;&#160;&#160;DOMAIN_SEPARATOR(): bytes32</text>
</g>
<!-- 1 -->
<g id="node2" class="node">
<title>1</title>
<polygon fill="#f2f2f2" stroke="#000000" points="62.6088,-1134.9 62.6088,-1377.3 501.2086,-1377.3 501.2086,-1134.9 62.6088,-1134.9"/>
<text text-anchor="middle" x="281.9087" y="-1360.7" font-family="Times,serif" font-size="14.00" fill="#000000">&lt;&lt;Interface&gt;&gt;</text>
<text text-anchor="middle" x="281.9087" y="-1343.9" font-family="Times,serif" font-size="14.00" fill="#000000">IERC20</text>
<polyline fill="none" stroke="#000000" points="62.6088,-1335.7 501.2086,-1335.7 "/>
<text text-anchor="middle" x="281.9087" y="-1319.1" font-family="Times,serif" font-size="14.00" fill="#000000"> </text>
<polyline fill="none" stroke="#000000" points="62.6088,-1310.9 501.2086,-1310.9 "/>
<text text-anchor="start" x="70.6088" y="-1294.3" font-family="Times,serif" font-size="14.00" fill="#000000">External:</text>
<text text-anchor="start" x="70.6088" y="-1277.5" font-family="Times,serif" font-size="14.00" fill="#000000"> &#160;&#160;&#160;&#160;totalSupply(): uint256</text>
<text text-anchor="start" x="70.6088" y="-1260.7" font-family="Times,serif" font-size="14.00" fill="#000000"> &#160;&#160;&#160;&#160;balanceOf(account: address): uint256</text>
<text text-anchor="start" x="70.6088" y="-1243.9" font-family="Times,serif" font-size="14.00" fill="#000000"> &#160;&#160;&#160;&#160;transfer(recipient: address, amount: uint256): bool</text>
<text text-anchor="start" x="70.6088" y="-1227.1" font-family="Times,serif" font-size="14.00" fill="#000000"> &#160;&#160;&#160;&#160;allowance(owner: address, spender: address): uint256</text>
<text text-anchor="start" x="70.6088" y="-1210.3" font-family="Times,serif" font-size="14.00" fill="#000000"> &#160;&#160;&#160;&#160;approve(spender: address, amount: uint256): bool</text>
<text text-anchor="start" x="70.6088" y="-1193.5" font-family="Times,serif" font-size="14.00" fill="#000000"> &#160;&#160;&#160;&#160;transferFrom(sender: address, recipient: address, amount: uint256): bool</text>
<text text-anchor="start" x="70.6088" y="-1176.7" font-family="Times,serif" font-size="14.00" fill="#000000">Public:</text>
<text text-anchor="start" x="70.6088" y="-1159.9" font-family="Times,serif" font-size="14.00" fill="#000000"> &#160;&#160;&#160;&lt;&lt;event&gt;&gt; Transfer(from: address, to: address, value: uint256)</text>
<text text-anchor="start" x="70.6088" y="-1143.1" font-family="Times,serif" font-size="14.00" fill="#000000"> &#160;&#160;&#160;&lt;&lt;event&gt;&gt; Approval(owner: address, spender: address, value: uint256)</text>
</g>
<!-- 2 -->
<g id="node3" class="node">
<title>2</title>
<polygon fill="#f2f2f2" stroke="#000000" points="263.5321,-939.5 263.5321,-1081.1 392.2853,-1081.1 392.2853,-939.5 263.5321,-939.5"/>
<text text-anchor="middle" x="327.9087" y="-1064.5" font-family="Times,serif" font-size="14.00" fill="#000000">&lt;&lt;Interface&gt;&gt;</text>
<text text-anchor="middle" x="327.9087" y="-1047.7" font-family="Times,serif" font-size="14.00" fill="#000000">IERC20Metadata</text>
<polyline fill="none" stroke="#000000" points="263.5321,-1039.5 392.2853,-1039.5 "/>
<text text-anchor="middle" x="327.9087" y="-1022.9" font-family="Times,serif" font-size="14.00" fill="#000000"> </text>
<polyline fill="none" stroke="#000000" points="263.5321,-1014.7 392.2853,-1014.7 "/>
<text text-anchor="start" x="271.5321" y="-998.1" font-family="Times,serif" font-size="14.00" fill="#000000">External:</text>
<text text-anchor="start" x="271.5321" y="-981.3" font-family="Times,serif" font-size="14.00" fill="#000000"> &#160;&#160;&#160;&#160;name(): string</text>
<text text-anchor="start" x="271.5321" y="-964.5" font-family="Times,serif" font-size="14.00" fill="#000000"> &#160;&#160;&#160;&#160;symbol(): string</text>
<text text-anchor="start" x="271.5321" y="-947.7" font-family="Times,serif" font-size="14.00" fill="#000000"> &#160;&#160;&#160;&#160;decimals(): uint8</text>
</g>
<!-- 2&#45;&gt;1 -->
<g id="edge2" class="edge">
<title>2&#45;&gt;1</title>
<path fill="none" stroke="#000000" stroke-dasharray="5,2" d="M314.6036,-1081.3955C313.1849,-1088.9766 311.7059,-1096.8796 310.1947,-1104.9546"/>
<polygon fill="none" stroke="#000000" points="299.8296,-1103.26 304.6318,-1134.6796 320.4713,-1107.123 299.8296,-1103.26"/>
</g>
<!-- 3 -->
<g id="node4" class="node">
<title>3</title>
<polygon fill="#f2f2f2" stroke="#000000" points="26.9595,-947.9 26.9595,-1072.7 184.8579,-1072.7 184.8579,-947.9 26.9595,-947.9"/>
<text text-anchor="middle" x="105.9087" y="-1056.1" font-family="Times,serif" font-size="14.00" fill="#000000">&lt;&lt;Abstract&gt;&gt;</text>
<text text-anchor="middle" x="105.9087" y="-1039.3" font-family="Times,serif" font-size="14.00" fill="#000000">Context</text>
<polyline fill="none" stroke="#000000" points="26.9595,-1031.1 184.8579,-1031.1 "/>
<text text-anchor="middle" x="105.9087" y="-1014.5" font-family="Times,serif" font-size="14.00" fill="#000000"> </text>
<polyline fill="none" stroke="#000000" points="26.9595,-1006.3 184.8579,-1006.3 "/>
<text text-anchor="start" x="34.9595" y="-989.7" font-family="Times,serif" font-size="14.00" fill="#000000">Internal:</text>
<text text-anchor="start" x="34.9595" y="-972.9" font-family="Times,serif" font-size="14.00" fill="#000000"> &#160;&#160;&#160;_msgSender(): address</text>
<text text-anchor="start" x="34.9595" y="-956.1" font-family="Times,serif" font-size="14.00" fill="#000000"> &#160;&#160;&#160;_msgData(): bytes</text>
</g>
<!-- 4 -->
<g id="node5" class="node">
<title>4</title>
<polygon fill="#f2f2f2" stroke="#000000" points="64.3588,-408.1 64.3588,-885.7 499.4586,-885.7 499.4586,-408.1 64.3588,-408.1"/>
<text text-anchor="middle" x="281.9087" y="-869.1" font-family="Times,serif" font-size="14.00" fill="#000000">ERC20</text>
<polyline fill="none" stroke="#000000" points="64.3588,-860.9 499.4586,-860.9 "/>
<text text-anchor="start" x="72.3588" y="-844.3" font-family="Times,serif" font-size="14.00" fill="#000000">Private:</text>
<text text-anchor="start" x="72.3588" y="-827.5" font-family="Times,serif" font-size="14.00" fill="#000000"> &#160;&#160;_balances: mapping(address=&gt;uint256)</text>
<text text-anchor="start" x="72.3588" y="-810.7" font-family="Times,serif" font-size="14.00" fill="#000000"> &#160;&#160;_allowances: mapping(address=&gt;mapping(address=&gt;uint256))</text>
<text text-anchor="start" x="72.3588" y="-793.9" font-family="Times,serif" font-size="14.00" fill="#000000"> &#160;&#160;_totalSupply: uint256</text>
<text text-anchor="start" x="72.3588" y="-777.1" font-family="Times,serif" font-size="14.00" fill="#000000"> &#160;&#160;_name: string</text>
<text text-anchor="start" x="72.3588" y="-760.3" font-family="Times,serif" font-size="14.00" fill="#000000"> &#160;&#160;_symbol: string</text>
<polyline fill="none" stroke="#000000" points="64.3588,-752.1 499.4586,-752.1 "/>
<text text-anchor="start" x="72.3588" y="-735.5" font-family="Times,serif" font-size="14.00" fill="#000000">Internal:</text>
<text text-anchor="start" x="72.3588" y="-718.7" font-family="Times,serif" font-size="14.00" fill="#000000"> &#160;&#160;&#160;_transfer(sender: address, recipient: address, amount: uint256)</text>
<text text-anchor="start" x="72.3588" y="-701.9" font-family="Times,serif" font-size="14.00" fill="#000000"> &#160;&#160;&#160;_mint(account: address, amount: uint256)</text>
<text text-anchor="start" x="72.3588" y="-685.1" font-family="Times,serif" font-size="14.00" fill="#000000"> &#160;&#160;&#160;_burn(account: address, amount: uint256)</text>
<text text-anchor="start" x="72.3588" y="-668.3" font-family="Times,serif" font-size="14.00" fill="#000000"> &#160;&#160;&#160;_approve(owner: address, spender: address, amount: uint256)</text>
<text text-anchor="start" x="72.3588" y="-651.5" font-family="Times,serif" font-size="14.00" fill="#000000"> &#160;&#160;&#160;_beforeTokenTransfer(from: address, to: address, amount: uint256)</text>
<text text-anchor="start" x="72.3588" y="-634.7" font-family="Times,serif" font-size="14.00" fill="#000000"> &#160;&#160;&#160;_afterTokenTransfer(from: address, to: address, amount: uint256)</text>
<text text-anchor="start" x="72.3588" y="-617.9" font-family="Times,serif" font-size="14.00" fill="#000000">Public:</text>
<text text-anchor="start" x="72.3588" y="-601.1" font-family="Times,serif" font-size="14.00" fill="#000000"> &#160;&#160;&#160;constructor(name_: string, symbol_: string)</text>
<text text-anchor="start" x="72.3588" y="-584.3" font-family="Times,serif" font-size="14.00" fill="#000000"> &#160;&#160;&#160;name(): string</text>
<text text-anchor="start" x="72.3588" y="-567.5" font-family="Times,serif" font-size="14.00" fill="#000000"> &#160;&#160;&#160;symbol(): string</text>
<text text-anchor="start" x="72.3588" y="-550.7" font-family="Times,serif" font-size="14.00" fill="#000000"> &#160;&#160;&#160;decimals(): uint8</text>
<text text-anchor="start" x="72.3588" y="-533.9" font-family="Times,serif" font-size="14.00" fill="#000000"> &#160;&#160;&#160;totalSupply(): uint256</text>
<text text-anchor="start" x="72.3588" y="-517.1" font-family="Times,serif" font-size="14.00" fill="#000000"> &#160;&#160;&#160;balanceOf(account: address): uint256</text>
<text text-anchor="start" x="72.3588" y="-500.3" font-family="Times,serif" font-size="14.00" fill="#000000"> &#160;&#160;&#160;transfer(recipient: address, amount: uint256): bool</text>
<text text-anchor="start" x="72.3588" y="-483.5" font-family="Times,serif" font-size="14.00" fill="#000000"> &#160;&#160;&#160;allowance(owner: address, spender: address): uint256</text>
<text text-anchor="start" x="72.3588" y="-466.7" font-family="Times,serif" font-size="14.00" fill="#000000"> &#160;&#160;&#160;approve(spender: address, amount: uint256): bool</text>
<text text-anchor="start" x="72.3588" y="-449.9" font-family="Times,serif" font-size="14.00" fill="#000000"> &#160;&#160;&#160;transferFrom(sender: address, recipient: address, amount: uint256): bool</text>
<text text-anchor="start" x="72.3588" y="-433.1" font-family="Times,serif" font-size="14.00" fill="#000000"> &#160;&#160;&#160;increaseAllowance(spender: address, addedValue: uint256): bool</text>
<text text-anchor="start" x="72.3588" y="-416.3" font-family="Times,serif" font-size="14.00" fill="#000000"> &#160;&#160;&#160;decreaseAllowance(spender: address, subtractedValue: uint256): bool</text>
</g>
<!-- 4&#45;&gt;1 -->
<g id="edge4" class="edge">
<title>4&#45;&gt;1</title>
<path fill="none" stroke="#000000" stroke-dasharray="5,2" d="M254.7446,-885.7742C250.4226,-954.4651 249.0487,-1029.448 254.9087,-1098.4 255.0806,-1100.4217 255.2645,-1102.4565 255.4599,-1104.5018"/>
<polygon fill="none" stroke="#000000" points="245.0595,-1105.9662 258.98,-1134.5401 265.9168,-1103.5219 245.0595,-1105.9662"/>
</g>
<!-- 4&#45;&gt;2 -->
<g id="edge5" class="edge">
<title>4&#45;&gt;2</title>
<path fill="none" stroke="#000000" stroke-dasharray="5,2" d="M312.1425,-885.7468C313.1607,-893.7907 314.1579,-901.6682 315.1248,-909.3069"/>
<polygon fill="none" stroke="#000000" points="304.7216,-910.7345 318.906,-939.1784 325.5554,-908.0973 304.7216,-910.7345"/>
</g>
<!-- 4&#45;&gt;3 -->
<g id="edge3" class="edge">
<title>4&#45;&gt;3</title>
<path fill="none" stroke="#000000" d="M166.2317,-885.7468C160.3487,-897.8939 154.6494,-909.6616 149.2547,-920.8004"/>
<polygon fill="none" stroke="#000000" points="139.7865,-916.2613 136.1599,-947.8382 158.6865,-925.4149 139.7865,-916.2613"/>
</g>
<!-- 5 -->
<g id="node6" class="node">
<title>5</title>
<polygon fill="#f2f2f2" stroke="#000000" points="1105.6621,-922.7 1105.6621,-1097.9 1562.1553,-1097.9 1562.1553,-922.7 1105.6621,-922.7"/>
<text text-anchor="middle" x="1333.9087" y="-1081.3" font-family="Times,serif" font-size="14.00" fill="#000000">&lt;&lt;Library&gt;&gt;</text>
<text text-anchor="middle" x="1333.9087" y="-1064.5" font-family="Times,serif" font-size="14.00" fill="#000000">ECDSA</text>
<polyline fill="none" stroke="#000000" points="1105.6621,-1056.3 1562.1553,-1056.3 "/>
<text text-anchor="middle" x="1333.9087" y="-1039.7" font-family="Times,serif" font-size="14.00" fill="#000000"> </text>
<polyline fill="none" stroke="#000000" points="1105.6621,-1031.5 1562.1553,-1031.5 "/>
<text text-anchor="start" x="1113.6621" y="-1014.9" font-family="Times,serif" font-size="14.00" fill="#000000">Internal:</text>
<text text-anchor="start" x="1113.6621" y="-998.1" font-family="Times,serif" font-size="14.00" fill="#000000"> &#160;&#160;&#160;recover(hash: bytes32, signature: bytes): address</text>
<text text-anchor="start" x="1113.6621" y="-981.3" font-family="Times,serif" font-size="14.00" fill="#000000"> &#160;&#160;&#160;recover(hash: bytes32, r: bytes32, vs: bytes32): address</text>
<text text-anchor="start" x="1113.6621" y="-964.5" font-family="Times,serif" font-size="14.00" fill="#000000"> &#160;&#160;&#160;recover(hash: bytes32, v: uint8, r: bytes32, s: bytes32): address</text>
<text text-anchor="start" x="1113.6621" y="-947.7" font-family="Times,serif" font-size="14.00" fill="#000000"> &#160;&#160;&#160;toEthSignedMessageHash(hash: bytes32): bytes32</text>
<text text-anchor="start" x="1113.6621" y="-930.9" font-family="Times,serif" font-size="14.00" fill="#000000"> &#160;&#160;&#160;toTypedDataHash(domainSeparator: bytes32, structHash: bytes32): bytes32</text>
</g>
<!-- 6 -->
<g id="node7" class="node">
<title>6</title>
<polygon fill="#f2f2f2" stroke="#000000" points="1205.14,-508.9 1205.14,-784.9 1778.6774,-784.9 1778.6774,-508.9 1205.14,-508.9"/>
<text text-anchor="middle" x="1491.9087" y="-768.3" font-family="Times,serif" font-size="14.00" fill="#000000">&lt;&lt;Abstract&gt;&gt;</text>
<text text-anchor="middle" x="1491.9087" y="-751.5" font-family="Times,serif" font-size="14.00" fill="#000000">EIP712</text>
<polyline fill="none" stroke="#000000" points="1205.14,-743.3 1778.6774,-743.3 "/>
<text text-anchor="start" x="1213.14" y="-726.7" font-family="Times,serif" font-size="14.00" fill="#000000">Private:</text>
<text text-anchor="start" x="1213.14" y="-709.9" font-family="Times,serif" font-size="14.00" fill="#000000"> &#160;&#160;_CACHED_DOMAIN_SEPARATOR: bytes32</text>
<text text-anchor="start" x="1213.14" y="-693.1" font-family="Times,serif" font-size="14.00" fill="#000000"> &#160;&#160;_CACHED_CHAIN_ID: uint256</text>
<text text-anchor="start" x="1213.14" y="-676.3" font-family="Times,serif" font-size="14.00" fill="#000000"> &#160;&#160;_HASHED_NAME: bytes32</text>
<text text-anchor="start" x="1213.14" y="-659.5" font-family="Times,serif" font-size="14.00" fill="#000000"> &#160;&#160;_HASHED_VERSION: bytes32</text>
<text text-anchor="start" x="1213.14" y="-642.7" font-family="Times,serif" font-size="14.00" fill="#000000"> &#160;&#160;_TYPE_HASH: bytes32</text>
<polyline fill="none" stroke="#000000" points="1205.14,-634.5 1778.6774,-634.5 "/>
<text text-anchor="start" x="1213.14" y="-617.9" font-family="Times,serif" font-size="14.00" fill="#000000">Private:</text>
<text text-anchor="start" x="1213.14" y="-601.1" font-family="Times,serif" font-size="14.00" fill="#000000"> &#160;&#160;&#160;_buildDomainSeparator(typeHash: bytes32, nameHash: bytes32, versionHash: bytes32): bytes32</text>
<text text-anchor="start" x="1213.14" y="-584.3" font-family="Times,serif" font-size="14.00" fill="#000000">Internal:</text>
<text text-anchor="start" x="1213.14" y="-567.5" font-family="Times,serif" font-size="14.00" fill="#000000"> &#160;&#160;&#160;_domainSeparatorV4(): bytes32</text>
<text text-anchor="start" x="1213.14" y="-550.7" font-family="Times,serif" font-size="14.00" fill="#000000"> &#160;&#160;&#160;_hashTypedDataV4(structHash: bytes32): bytes32</text>
<text text-anchor="start" x="1213.14" y="-533.9" font-family="Times,serif" font-size="14.00" fill="#000000">Public:</text>
<text text-anchor="start" x="1213.14" y="-517.1" font-family="Times,serif" font-size="14.00" fill="#000000"> &#160;&#160;&#160;constructor(name: string, version: string)</text>
</g>
<!-- 6&#45;&gt;5 -->
<g id="edge6" class="edge">
<title>6&#45;&gt;5</title>
<path fill="none" stroke="#000000" stroke-dasharray="5,2" d="M1431.8377,-785.0633C1413.2588,-827.7948 1393.1957,-873.9399 1376.0963,-913.2686"/>
<polygon fill="#000000" stroke="#000000" points="1372.8208,-912.0245 1372.0432,-922.5907 1379.2403,-914.8156 1372.8208,-912.0245"/>
</g>
<!-- 7 -->
<g id="node8" class="node">
<title>7</title>
<polygon fill="#f2f2f2" stroke="#000000" points="1797.105,-567.7 1797.105,-726.1 2020.7124,-726.1 2020.7124,-567.7 1797.105,-567.7"/>
<text text-anchor="middle" x="1908.9087" y="-709.5" font-family="Times,serif" font-size="14.00" fill="#000000">&lt;&lt;Library&gt;&gt;</text>
<text text-anchor="middle" x="1908.9087" y="-692.7" font-family="Times,serif" font-size="14.00" fill="#000000">Counters</text>
<polyline fill="none" stroke="#000000" points="1797.105,-684.5 2020.7124,-684.5 "/>
<text text-anchor="middle" x="1908.9087" y="-667.9" font-family="Times,serif" font-size="14.00" fill="#000000"> </text>
<polyline fill="none" stroke="#000000" points="1797.105,-659.7 2020.7124,-659.7 "/>
<text text-anchor="start" x="1805.105" y="-643.1" font-family="Times,serif" font-size="14.00" fill="#000000">Internal:</text>
<text text-anchor="start" x="1805.105" y="-626.3" font-family="Times,serif" font-size="14.00" fill="#000000"> &#160;&#160;&#160;current(counter: Counter): uint256</text>
<text text-anchor="start" x="1805.105" y="-609.5" font-family="Times,serif" font-size="14.00" fill="#000000"> &#160;&#160;&#160;increment(counter: Counter)</text>
<text text-anchor="start" x="1805.105" y="-592.7" font-family="Times,serif" font-size="14.00" fill="#000000"> &#160;&#160;&#160;decrement(counter: Counter)</text>
<text text-anchor="start" x="1805.105" y="-575.9" font-family="Times,serif" font-size="14.00" fill="#000000"> &#160;&#160;&#160;reset(counter: Counter)</text>
</g>
<!-- 7struct0 -->
<g id="node9" class="node">
<title>7struct0</title>
<polygon fill="#f2f2f2" stroke="#000000" points="1857.1629,-216.7 1857.1629,-283.1 1960.6545,-283.1 1960.6545,-216.7 1857.1629,-216.7"/>
<text text-anchor="middle" x="1908.9087" y="-266.5" font-family="Times,serif" font-size="14.00" fill="#000000">&lt;&lt;struct&gt;&gt;</text>
<text text-anchor="middle" x="1908.9087" y="-249.7" font-family="Times,serif" font-size="14.00" fill="#000000">Counter</text>
<polyline fill="none" stroke="#000000" points="1857.1629,-241.5 1960.6545,-241.5 "/>
<text text-anchor="start" x="1865.1629" y="-224.9" font-family="Times,serif" font-size="14.00" fill="#000000">_value: uint256</text>
</g>
<!-- 7struct0&#45;&gt;7 -->
<g id="edge1" class="edge">
<title>7struct0&#45;&gt;7</title>
<path fill="none" stroke="#000000" d="M1908.9087,-283.4058C1908.9087,-342.7985 1908.9087,-468.4503 1908.9087,-555.2584"/>
<polygon fill="#000000" stroke="#000000" points="1908.9088,-555.5051 1912.9088,-561.5051 1908.9087,-567.5051 1904.9088,-561.505 1908.9088,-555.5051"/>
</g>
<!-- 8 -->
<g id="node10" class="node">
<title>8</title>
<polygon fill="#f2f2f2" stroke="#000000" points="518.7238,-128.7 518.7238,-371.1 1147.0936,-371.1 1147.0936,-128.7 518.7238,-128.7"/>
<text text-anchor="middle" x="832.9087" y="-354.5" font-family="Times,serif" font-size="14.00" fill="#000000">&lt;&lt;Abstract&gt;&gt;</text>
<text text-anchor="middle" x="832.9087" y="-337.7" font-family="Times,serif" font-size="14.00" fill="#000000">ERC20Permit</text>
<polyline fill="none" stroke="#000000" points="518.7238,-329.5 1147.0936,-329.5 "/>
<text text-anchor="start" x="526.7238" y="-312.9" font-family="Times,serif" font-size="14.00" fill="#000000">Private:</text>
<text text-anchor="start" x="526.7238" y="-296.1" font-family="Times,serif" font-size="14.00" fill="#000000"> &#160;&#160;_nonces: mapping(address=&gt;Counters.Counter)</text>
<text text-anchor="start" x="526.7238" y="-279.3" font-family="Times,serif" font-size="14.00" fill="#000000"> &#160;&#160;_PERMIT_TYPEHASH: bytes32</text>
<polyline fill="none" stroke="#000000" points="518.7238,-271.1 1147.0936,-271.1 "/>
<text text-anchor="start" x="526.7238" y="-254.5" font-family="Times,serif" font-size="14.00" fill="#000000">Internal:</text>
<text text-anchor="start" x="526.7238" y="-237.7" font-family="Times,serif" font-size="14.00" fill="#000000"> &#160;&#160;&#160;_useNonce(owner: address): (current: uint256)</text>
<text text-anchor="start" x="526.7238" y="-220.9" font-family="Times,serif" font-size="14.00" fill="#000000">External:</text>
<text text-anchor="start" x="526.7238" y="-204.1" font-family="Times,serif" font-size="14.00" fill="#000000"> &#160;&#160;&#160;DOMAIN_SEPARATOR(): bytes32</text>
<text text-anchor="start" x="526.7238" y="-187.3" font-family="Times,serif" font-size="14.00" fill="#000000">Public:</text>
<text text-anchor="start" x="526.7238" y="-170.5" font-family="Times,serif" font-size="14.00" fill="#000000"> &#160;&#160;&#160;constructor(name: string)</text>
<text text-anchor="start" x="526.7238" y="-153.7" font-family="Times,serif" font-size="14.00" fill="#000000"> &#160;&#160;&#160;permit(owner: address, spender: address, value: uint256, deadline: uint256, v: uint8, r: bytes32, s: bytes32)</text>
<text text-anchor="start" x="526.7238" y="-136.9" font-family="Times,serif" font-size="14.00" fill="#000000"> &#160;&#160;&#160;nonces(owner: address): uint256</text>
</g>
<!-- 8&#45;&gt;0 -->
<g id="edge8" class="edge">
<title>8&#45;&gt;0</title>
<path fill="none" stroke="#000000" stroke-dasharray="5,2" d="M832.9087,-371.1703C832.9087,-427.0808 832.9087,-492.6759 832.9087,-545.8577"/>
<polygon fill="none" stroke="#000000" points="822.4088,-545.9673 832.9087,-575.9673 843.4088,-545.9673 822.4088,-545.9673"/>
</g>
<!-- 8&#45;&gt;4 -->
<g id="edge7" class="edge">
<title>8&#45;&gt;4</title>
<path fill="none" stroke="#000000" d="M562.791,-371.2896C550.3578,-378.7772 538.1613,-386.5413 524.078,-396.2801"/>
<polygon fill="none" stroke="#000000" points="517.9071,-387.7845 499.6324,-413.7901 530.1357,-404.8568 517.9071,-387.7845"/>
</g>
<!-- 8&#45;&gt;5 -->
<g id="edge11" class="edge">
<title>8&#45;&gt;5</title>
<path fill="none" stroke="#000000" stroke-dasharray="5,2" d="M1127.281,-371.4253C1138.6484,-382.4907 1148.9786,-394.5226 1157.9087,-407.6 1218.0742,-495.7075 1148.6579,-790.5435 1195.9087,-886.2 1200.7706,-896.0425 1206.7826,-905.4633 1213.5525,-914.4002"/>
<polygon fill="#000000" stroke="#000000" points="1211.0072,-916.8227 1219.9717,-922.4698 1216.4854,-912.465 1211.0072,-916.8227"/>
</g>
<!-- 8&#45;&gt;6 -->
<g id="edge9" class="edge">
<title>8&#45;&gt;6</title>
<path fill="none" stroke="#000000" d="M1125.2914,-371.1169C1147.8575,-382.7567 1169.9798,-394.9602 1190.9087,-407.6 1231.1573,-431.9077 1272.0426,-460.9533 1310.1678,-490.29"/>
<polygon fill="none" stroke="#000000" points="1303.7362,-498.5898 1333.8345,-508.8047 1316.6756,-482.0498 1303.7362,-498.5898"/>
</g>
<!-- 8&#45;&gt;7 -->
<g id="edge10" class="edge">
<title>8&#45;&gt;7</title>
<path fill="none" stroke="#000000" stroke-dasharray="5,2" d="M1147.389,-271.2717C1385.4163,-292.9851 1687.8714,-334.1776 1787.9087,-407.6 1837.2844,-443.8393 1867.8673,-506.0314 1885.9328,-557.9305"/>
<polygon fill="#000000" stroke="#000000" points="1882.6464,-559.1383 1889.162,-567.4928 1889.2784,-556.8986 1882.6464,-559.1383"/>
</g>
<!-- 9 -->
<g id="node11" class="node">
<title>9</title>
<polygon fill="#f2f2f2" stroke="#000000" points="138.2151,-187.5 138.2151,-312.3 425.6023,-312.3 425.6023,-187.5 138.2151,-187.5"/>
<text text-anchor="middle" x="281.9087" y="-295.7" font-family="Times,serif" font-size="14.00" fill="#000000">&lt;&lt;Abstract&gt;&gt;</text>
<text text-anchor="middle" x="281.9087" y="-278.9" font-family="Times,serif" font-size="14.00" fill="#000000">ERC20Burnable</text>
<polyline fill="none" stroke="#000000" points="138.2151,-270.7 425.6023,-270.7 "/>
<text text-anchor="middle" x="281.9087" y="-254.1" font-family="Times,serif" font-size="14.00" fill="#000000"> </text>
<polyline fill="none" stroke="#000000" points="138.2151,-245.9 425.6023,-245.9 "/>
<text text-anchor="start" x="146.2151" y="-229.3" font-family="Times,serif" font-size="14.00" fill="#000000">Public:</text>
<text text-anchor="start" x="146.2151" y="-212.5" font-family="Times,serif" font-size="14.00" fill="#000000"> &#160;&#160;&#160;burn(amount: uint256)</text>
<text text-anchor="start" x="146.2151" y="-195.7" font-family="Times,serif" font-size="14.00" fill="#000000"> &#160;&#160;&#160;burnFrom(account: address, amount: uint256)</text>
</g>
<!-- 9&#45;&gt;3 -->
<g id="edge12" class="edge">
<title>9&#45;&gt;3</title>
<path fill="none" stroke="#000000" d="M147.8696,-312.3822C111.0097,-336.5974 75.5329,-368.1594 54.9087,-407.6 -43.6588,-596.0952 13.701,-677.5186 54.9087,-886.2 57.0783,-897.1869 60.2317,-908.4242 63.923,-919.4302"/>
<polygon fill="none" stroke="#000000" points="54.1863,-923.3671 74.6438,-947.6928 73.8211,-915.919 54.1863,-923.3671"/>
</g>
<!-- 9&#45;&gt;4 -->
<g id="edge13" class="edge">
<title>9&#45;&gt;4</title>
<path fill="none" stroke="#000000" d="M281.9087,-312.368C281.9087,-331.4349 281.9087,-353.7282 281.9087,-377.5929"/>
<polygon fill="none" stroke="#000000" points="271.4088,-377.9506 281.9087,-407.9506 292.4088,-377.9507 271.4088,-377.9506"/>
</g>
<!-- 10 -->
<g id="node12" class="node">
<title>10</title>
<polygon fill="#f2f2f2" stroke="#000000" points="316.7782,-.5 316.7782,-91.7 797.0392,-91.7 797.0392,-.5 316.7782,-.5"/>
<text text-anchor="middle" x="556.9087" y="-75.1" font-family="Times,serif" font-size="14.00" fill="#000000">SGTv2</text>
<polyline fill="none" stroke="#000000" points="316.7782,-66.9 797.0392,-66.9 "/>
<text text-anchor="middle" x="556.9087" y="-50.3" font-family="Times,serif" font-size="14.00" fill="#000000"> </text>
<polyline fill="none" stroke="#000000" points="316.7782,-42.1 797.0392,-42.1 "/>
<text text-anchor="start" x="324.7782" y="-25.5" font-family="Times,serif" font-size="14.00" fill="#000000">Public:</text>
<text text-anchor="start" x="324.7782" y="-8.7" font-family="Times,serif" font-size="14.00" fill="#000000"> &#160;&#160;&#160;constructor(name: string, symbol: string, initialSupply: uint256, owner: address)</text>
</g>
<!-- 10&#45;&gt;8 -->
<g id="edge15" class="edge">
<title>10&#45;&gt;8</title>
<path fill="none" stroke="#000000" d="M618.8485,-91.8367C626.9119,-97.7908 635.4791,-104.1168 644.3712,-110.6828"/>
<polygon fill="none" stroke="#000000" points="638.1737,-119.1589 668.5446,-128.5325 650.6481,-102.2653 638.1737,-119.1589"/>
</g>
<!-- 10&#45;&gt;9 -->
<g id="edge14" class="edge">
<title>10&#45;&gt;9</title>
<path fill="none" stroke="#000000" d="M495.1934,-91.8367C464.3878,-114.6664 426.2019,-142.9657 390.6907,-169.2826"/>
<polygon fill="none" stroke="#000000" points="384.2079,-161.0179 366.357,-187.3162 396.7115,-177.8898 384.2079,-161.0179"/>
</g>
</g>
</svg>
